<?xml version="1.0" standalone="no"?>
<!DOCTYPE svg PUBLIC "-//W3C//DTD SVG 20010904//EN"
 "http://www.w3.org/TR/2001/REC-SVG-20010904/DTD/svg10.dtd">
<svg version="1.0" xmlns="http://www.w3.org/2000/svg"
 width="700.000000pt" height="700.000000pt" viewBox="0 0 700.000000 700.000000"
 preserveAspectRatio="xMidYMid meet">
<metadata>
Created by potrace 1.14, written by Peter Selinger 2001-2017
</metadata>
<g transform="translate(0.000000,700.000000) scale(0.100000,-0.100000)"
fill="#000000" stroke="none">
<path d="M1657 5526 c-63 -23 -116 -64 -148 -114 -39 -62 -52 -114 -46 -188
10 -128 -35 -85 967 -921 504 -421 925 -765 950 -776 67 -32 179 -30 243 3 47
25 1715 1361 1816 1455 68 64 93 113 99 196 6 85 -16 152 -69 213 -88 100
-232 129 -344 70 -31 -16 -406 -312 -836 -659 -429 -346 -784 -630 -788 -630
-5 0 -361 294 -792 654 -430 360 -802 666 -827 679 -55 31 -167 40 -225 18z"/>
<path d="M1643 3479 c-60 -23 -123 -80 -155 -141 -18 -35 -23 -59 -23 -128 0
-154 -66 -89 960 -944 495 -412 919 -761 944 -775 64 -36 168 -40 239 -9 36
16 331 248 960 754 1020 822 961 767 970 909 4 63 1 80 -23 132 -30 69 -70
111 -135 145 -37 19 -60 23 -130 23 -73 0 -91 -4 -130 -26 -37 -20 -681 -534
-1475 -1176 -76 -62 -141 -113 -145 -113 -3 0 -363 300 -800 665 -854 714
-842 706 -953 704 -29 0 -75 -9 -104 -20z"/>
</g>
</svg>
